<svg width="1162" height="547" viewBox="0 0 1162 547" fill="none" xmlns="http://www.w3.org/2000/svg">
<path d="M275.181 507.584V517.763C275.181 520.185 276.301 521.396 278.541 521.396C280.001 521.396 281.353 521.231 282.598 520.899C283.859 520.567 285.128 520.136 286.405 519.605V507.584H293.996V535.408H286.405V524.358C284.647 525.287 283.012 525.943 281.503 526.324C279.993 526.706 278.533 526.897 277.122 526.897C274.086 526.897 271.738 526.125 270.079 524.582C268.42 523.022 267.591 520.807 267.591 517.937V507.584H275.181Z" fill="white"/>
<path d="M259.925 535.408H252.21V521.347C249.655 522.21 247.523 522.799 245.814 523.114C244.121 523.429 242.504 523.587 240.961 523.587C237.493 523.587 234.814 522.757 232.922 521.098C231.047 519.422 230.11 517.075 230.11 514.055V499.023H237.8V511.865C237.8 513.624 238.207 514.951 239.02 515.847C239.833 516.726 241.21 517.166 243.151 517.166C244.511 517.166 245.864 517.033 247.208 516.768C248.568 516.486 250.235 516.004 252.21 515.324V499.023H259.925V535.408Z" fill="white"/>
<path d="M180.249 530.817H184.306V546.347H177.487V536.367H153.943V508.543H161.534V530.668H172.634V508.543H180.249V530.817Z" fill="white"/>
<path d="M141.321 530.246H146.747V546.97H139.305V536.368H112.527V499.982H120.242V529.947H133.631V499.982H141.321V530.246Z" fill="white"/>
<path d="M46.6775 522.156L37.718 508.543H46.329L51.7296 517.403L57.1799 508.543H65.791L56.732 522.156L66.2141 536.367H57.5781L51.7296 526.835L45.8562 536.367H37.2451L46.6775 522.156Z" fill="white"/>
<path d="M36.9962 536.368H28.1861L19.7243 522.605L11.2626 536.368H3L15.0704 517.603L3.77151 499.982H12.283L20.1225 513.073L27.8128 499.982H36.1252L24.7018 518.026L36.9962 536.368Z" fill="white"/>
<path d="M312.836 461.183H305.743V439.257L305.345 440.8C304.449 444.301 303.644 446.947 302.931 448.739L298.003 461.183H292.602L287.6 448.64C286.887 446.815 286.123 444.251 285.31 440.95L284.838 439.257V461.183H277.77V433.359H288.222L293.001 445.23C293.498 446.508 293.955 447.976 294.369 449.635C294.801 451.294 295.091 452.713 295.24 453.891C295.788 451.402 296.211 449.619 296.51 448.54C296.825 447.445 297.165 446.441 297.53 445.529C297.895 444.616 299.546 440.56 302.483 433.359H312.836V461.183Z" fill="white"/>
<path d="M245.69 461.184L236.93 432.638H236.706C237.021 438.445 237.178 442.319 237.178 444.26V461.184H230.285V424.798H240.787L249.398 452.622H249.548L258.681 424.798H269.184V461.184H261.991V443.962C261.991 443.149 262 442.211 262.016 441.149C262.049 440.088 262.165 437.267 262.365 432.688H262.141L252.758 461.184H245.69Z" fill="white"/>
<path d="M178.533 458.958H170.943V436.833H163.949C163.418 443.055 162.771 447.701 162.008 450.77C161.245 453.823 160.224 456.038 158.947 457.415C157.686 458.776 156.027 459.456 153.969 459.456C152.211 459.456 150.767 459.191 149.639 458.66V452.587C150.452 452.919 151.265 453.085 152.078 453.085C153.024 453.085 153.812 452.405 154.442 451.044C155.089 449.684 155.662 447.419 156.159 444.25C156.674 441.064 157.113 436.692 157.478 431.134H178.533V458.958Z" fill="white"/>
<path d="M145.502 462.994H137.812V433.029H128.903L128.504 436.364C127.476 444.843 126.563 450.799 125.767 454.233C124.987 457.651 123.842 460.057 122.332 461.451C120.822 462.844 118.782 463.525 116.21 463.492C114.816 463.492 113.588 463.309 112.527 462.944V456.623C113.489 456.954 114.393 457.12 115.239 457.12C116.119 457.12 116.816 456.722 117.33 455.926C117.844 455.113 118.325 453.62 118.773 451.446C119.238 449.256 119.844 445.68 120.59 440.72C121.353 435.742 122 431.038 122.531 426.608H145.502V462.994Z" fill="white"/>
<path d="M59.47 434.318H67.8322L56.8071 447.658L68.8028 462.142H60.1917L48.8182 448.031V462.142H41.2275V434.318H48.8182V447.832L59.47 434.318Z" fill="white"/>
<path d="M37.2454 462.143H28.485L15.2947 443.702V462.143H7.57959V425.758H15.2947V443.378L28.3357 425.758H36.5485L23.2836 443.229L37.2454 462.143Z" fill="white"/>
<path d="M286.816 366.427C286.816 367.92 286.343 369.198 285.397 370.259C284.468 371.305 283.091 371.977 281.266 372.275V372.474C283.24 372.707 284.8 373.387 285.945 374.515C287.106 375.627 287.687 377.004 287.687 378.647C287.687 381.351 286.625 383.417 284.501 384.843C282.378 386.254 279.341 386.959 275.393 386.959H261.132V359.135H275.393C279.209 359.135 282.062 359.757 283.954 361.001C285.862 362.229 286.816 364.038 286.816 366.427ZM279.823 378.248C279.823 377.153 279.399 376.365 278.553 375.884C277.707 375.386 276.438 375.137 274.746 375.137H268.723V381.708H274.895C276.504 381.708 277.724 381.409 278.553 380.812C279.399 380.198 279.823 379.343 279.823 378.248ZM279.126 367.024C279.126 365.332 277.782 364.486 275.094 364.486H268.723V369.986H274.223C275.832 369.986 277.052 369.753 277.881 369.289C278.711 368.824 279.126 368.069 279.126 367.024Z" fill="white"/>
<path d="M227.484 350.574H238.808C243.968 350.574 247.709 351.313 250.032 352.789C252.372 354.249 253.541 356.58 253.541 359.783C253.541 361.956 253.027 363.74 251.998 365.133C250.986 366.527 249.634 367.365 247.942 367.647V367.896C250.248 368.41 251.907 369.373 252.919 370.783C253.948 372.193 254.462 374.068 254.462 376.407C254.462 379.726 253.259 382.314 250.853 384.172C248.464 386.03 245.212 386.96 241.098 386.96H227.484V350.574ZM235.199 364.984H239.679C241.77 364.984 243.279 364.66 244.208 364.013C245.154 363.366 245.627 362.296 245.627 360.803C245.627 359.409 245.113 358.414 244.084 357.816C243.072 357.203 241.463 356.896 239.256 356.896H235.199V364.984ZM235.199 371.106V380.588H240.226C242.35 380.588 243.918 380.182 244.93 379.369C245.942 378.556 246.448 377.312 246.448 375.636C246.448 372.616 244.291 371.106 239.978 371.106H235.199Z" fill="white"/>
<path d="M142.397 371.237C142.397 364.849 143.609 360.004 146.031 356.702C148.47 353.384 152.269 351.285 157.429 350.406C159.935 349.974 163.676 349.427 168.654 348.763L169.525 355.383C167.368 355.632 163.543 356.163 158.052 356.976C155.961 357.308 154.401 357.806 153.373 358.469C152.344 359.133 151.573 360.079 151.058 361.306C150.561 362.534 150.254 364.168 150.137 366.209H150.511C151.39 364.849 152.552 363.803 153.995 363.073C155.438 362.343 156.99 361.978 158.649 361.978C162.083 361.978 164.755 363.032 166.663 365.139C168.571 367.23 169.525 370.233 169.525 374.148C169.525 378.661 168.314 382.17 165.891 384.676C163.485 387.164 160.159 388.409 155.911 388.409C151.664 388.409 148.346 386.891 145.956 383.854C143.584 380.802 142.397 376.596 142.397 371.237ZM156.359 382.262C159.96 382.262 161.76 379.781 161.76 374.82C161.76 369.992 160.134 367.578 156.882 367.578C155.986 367.578 155.09 367.785 154.194 368.2C153.315 368.615 152.502 369.163 151.755 369.843C151.025 370.506 150.486 371.178 150.137 371.859C150.137 375.227 150.677 377.807 151.755 379.599C152.834 381.374 154.368 382.262 156.359 382.262Z" fill="white"/>
<path d="M120.242 364.536H123.278C128.023 364.536 131.69 365.498 134.278 367.423C136.867 369.348 138.161 372.069 138.161 375.586C138.161 383.168 133.15 386.96 123.129 386.96H112.527V350.574H135.523V356.945H120.242V364.536ZM120.242 380.638H122.83C125.435 380.638 127.343 380.223 128.554 379.394C129.765 378.548 130.371 377.278 130.371 375.586C130.371 373.91 129.757 372.707 128.529 371.977C127.301 371.231 125.194 370.857 122.208 370.857H120.242V380.638Z" fill="white"/>
<path d="M59.8428 387.919L58.3744 384.136H58.1753C56.8978 385.745 55.5787 386.865 54.2182 387.495C52.8743 388.109 51.1156 388.416 48.9421 388.416C46.2709 388.416 44.1637 387.653 42.6207 386.127C41.0943 384.6 40.3311 382.427 40.3311 379.606C40.3311 376.653 41.3597 374.479 43.4171 373.086C45.491 371.675 48.6103 370.896 52.7748 370.746L57.6029 370.597V369.377C57.6029 366.557 56.1595 365.147 53.2725 365.147C51.0492 365.147 48.4361 365.818 45.433 367.162L42.9193 362.036C46.1215 360.36 49.6721 359.522 53.5712 359.522C57.3043 359.522 60.1663 360.335 62.1573 361.961C64.1483 363.587 65.1438 366.059 65.1438 369.377V387.919H59.8428ZM57.6029 375.027L54.6662 375.126C52.4595 375.193 50.817 375.591 49.7385 376.321C48.66 377.051 48.1208 378.163 48.1208 379.656C48.1208 381.796 49.3486 382.866 51.8042 382.866C53.5629 382.866 54.9649 382.36 56.0101 381.348C57.072 380.336 57.6029 378.992 57.6029 377.316V375.027Z" fill="white"/>
<path d="M29.8535 387.919L27.2155 379.258H13.9505L11.3124 387.919H3L15.8419 351.384H25.2742L38.1659 387.919H29.8535ZM25.3738 372.787C22.9348 364.939 21.5577 360.501 21.2425 359.472C20.9438 358.444 20.7281 357.631 20.5954 357.033C20.0479 359.157 18.48 364.408 15.8917 372.787H25.3738Z" fill="white"/>
<path d="M264.92 162.821H273.486L278.898 178.98C279.36 180.384 279.676 182.046 279.847 183.964H280.001C280.189 182.2 280.557 180.539 281.104 178.98L286.413 162.821H294.799L282.668 195.216C281.557 198.213 279.967 200.457 277.898 201.947C275.846 203.437 273.444 204.182 270.691 204.182C269.34 204.182 268.015 204.037 266.715 203.745V197.528C267.656 197.751 268.682 197.862 269.793 197.862C271.178 197.862 272.384 197.434 273.409 196.578C274.452 195.739 275.265 194.463 275.846 192.75L276.308 191.337L264.92 162.821Z" fill="white"/>
<path d="M249.581 169.448L257.404 153.983H265.97L253.531 176.924V191.542H245.631V177.181L233.192 153.983H241.81L249.581 169.448Z" fill="white"/>
<path d="M160.729 176.143L151.496 162.091H160.37L165.935 171.237L171.552 162.091H180.426L171.09 176.143L180.862 190.813H171.962L165.935 180.973L159.882 190.813H151.008L160.729 176.143Z" fill="white"/>
<path d="M151.803 190.813H142.724L134.003 176.606L125.283 190.813H116.768L129.207 171.442L117.563 153.253H126.335L134.414 166.766L142.339 153.253H150.905L139.133 171.879L151.803 190.813Z" fill="white"/>
<path d="M77.4051 191.799L75.1994 181.754L72.2243 169.063H72.0448L66.8127 191.799H58.4003L50.2444 163.078H58.0412L61.3498 175.794C61.8798 178.072 62.4184 181.215 62.9655 185.223H63.1194C63.1878 183.921 63.487 181.857 64.0171 179.031L64.4275 176.848L67.9668 163.078H76.5844L79.9442 176.848C80.0126 177.224 80.1152 177.781 80.252 178.517C80.4058 179.254 80.5512 180.042 80.688 180.881C80.8248 181.703 80.9444 182.517 81.047 183.322C81.1667 184.109 81.2351 184.743 81.2522 185.223H81.4061C81.56 183.989 81.8336 182.302 82.2268 180.162C82.6201 178.004 82.9022 176.548 83.0732 175.794L86.5099 163.078H94.1785L85.9201 191.799H77.4051Z" fill="white"/>
<path d="M41.2412 191.799H32.1876L27.1094 172.069C26.9213 171.367 26.5965 169.92 26.1348 167.728C25.6902 165.518 25.4338 164.037 25.3654 163.283C25.2628 164.208 25.0063 165.698 24.596 167.753C24.1856 169.791 23.8693 171.247 23.647 172.121L18.5944 191.799H9.56652L0 154.24H7.82249L12.6186 174.741C13.4564 178.526 14.0634 181.806 14.4395 184.58C14.5421 183.604 14.773 182.097 15.132 180.059C15.5082 178.004 15.8587 176.411 16.1836 175.281L21.6465 154.24H29.1612L34.6241 175.281C34.8635 176.223 35.1627 177.661 35.5218 179.597C35.8809 181.532 36.1544 183.193 36.3425 184.58C36.5135 183.245 36.7871 181.583 37.1632 179.597C37.5394 177.593 37.8814 175.974 38.1891 174.741L42.9596 154.24H50.782L41.2412 191.799Z" fill="white"/>
<path d="M301.672 115.859H293.582V99.0831C293.582 97.0108 293.202 95.4608 292.442 94.4332C291.681 93.3884 290.47 92.8661 288.808 92.8661C286.544 92.8661 284.909 93.6025 283.901 95.0754C282.893 96.5312 282.389 98.9547 282.389 102.346V115.859H274.299V87.1372H280.479L281.567 90.8109H282.017C282.919 89.4236 284.157 88.3788 285.731 87.6766C287.322 86.9573 289.126 86.5977 291.142 86.5977C294.59 86.5977 297.207 87.5054 298.993 89.3208C300.779 91.1191 301.672 93.7224 301.672 97.1307V115.859Z" fill="white"/>
<path d="M267.407 115.859H257.027L240.271 87.4455H240.034C240.368 92.4637 240.534 96.0432 240.534 98.1841V115.859H233.237V78.2998H243.538L260.267 106.431H260.452C260.188 101.549 260.056 98.0984 260.056 96.0775V78.2998H267.407V115.859Z" fill="white"/>
<path d="M190.326 115.577H182.503V98.8014C182.503 96.729 182.153 95.179 181.452 94.1514C180.768 93.1067 179.682 92.5843 178.195 92.5843C176.194 92.5843 174.741 93.3208 173.835 94.7937C172.928 96.2666 172.475 98.69 172.475 102.064V115.577H164.653V86.8554H170.629L171.68 90.5291H172.116C172.886 89.2104 173.997 88.1827 175.45 87.4463C176.904 86.6927 178.571 86.3159 180.452 86.3159C184.743 86.3159 187.65 87.7203 189.172 90.5291H189.864C190.634 89.1932 191.762 88.1571 193.25 87.4206C194.754 86.6841 196.447 86.3159 198.328 86.3159C201.577 86.3159 204.03 87.1551 205.689 88.8336C207.364 90.4949 208.202 93.1666 208.202 96.8489V115.577H200.354V98.8014C200.354 96.729 200.004 95.179 199.303 94.1514C198.619 93.1067 197.533 92.5843 196.045 92.5843C194.13 92.5843 192.694 93.2694 191.737 94.6396C190.796 96.0097 190.326 98.1848 190.326 101.165V115.577Z" fill="white"/>
<path d="M132.644 115.576L123.616 86.1095H123.385C123.71 92.1039 123.873 96.103 123.873 98.1069V115.576H116.768V78.0171H127.592L136.466 106.739H136.619L146.032 78.0171H156.855V115.576H149.443V97.7986C149.443 96.9594 149.452 95.9917 149.469 94.8956C149.503 93.7995 149.623 90.8879 149.828 86.1609H149.597L139.928 115.576H132.644Z" fill="white"/>
<path d="M39.9599 115.859H32.1375V75.8848H39.9599V115.859Z" fill="white"/>
<path d="M4.104 115.859V78.2998H12.0547V109.282H27.2637V115.859H4.104Z" fill="white"/>
<path d="M278.731 41.0494C269.806 41.0494 265.343 36.1426 265.343 26.3289C265.343 21.4477 266.557 17.7227 268.985 15.1536C271.413 12.5675 274.892 11.2744 279.423 11.2744C282.741 11.2744 285.716 11.9252 288.349 13.2269L286.041 19.2898C284.809 18.7931 283.664 18.3906 282.604 18.0823C281.544 17.7569 280.484 17.5942 279.423 17.5942C275.354 17.5942 273.319 20.4886 273.319 26.2775C273.319 31.8951 275.354 34.7039 279.423 34.7039C280.928 34.7039 282.322 34.507 283.604 34.113C284.886 33.702 286.169 33.0683 287.451 32.212V38.9171C286.186 39.7221 284.904 40.2787 283.604 40.587C282.322 40.8953 280.697 41.0494 278.731 41.0494Z" fill="white"/>
<path d="M251.185 9.0646C248.193 9.0646 245.876 10.195 244.234 12.4557C242.593 14.6993 241.772 17.8335 241.772 21.8583C241.772 30.2334 244.91 34.4209 251.185 34.4209C253.818 34.4209 257.007 33.7615 260.751 32.4427V39.1222C257.674 40.4067 254.237 41.049 250.441 41.049C244.987 41.049 240.815 39.3962 237.925 36.0907C235.035 32.7681 233.591 28.0069 233.591 21.807C233.591 17.902 234.3 14.4852 235.719 11.5566C237.138 8.61074 239.173 6.35857 241.823 4.80003C244.491 3.22436 247.611 2.43652 251.185 2.43652C254.827 2.43652 258.486 3.31855 262.162 5.08262L259.597 11.5566C258.195 10.8886 256.784 10.3063 255.365 9.80962C253.946 9.31294 252.553 9.0646 251.185 9.0646Z" fill="white"/>
<path d="M166.345 10.9911C169.731 10.9911 172.381 12.3185 174.296 14.9731C176.211 17.6107 177.168 21.233 177.168 25.8401C177.168 30.5842 176.177 34.2579 174.193 36.8612C172.227 39.4645 169.542 40.7661 166.14 40.7661C162.772 40.7661 160.13 39.5416 158.215 37.0924H157.676L156.368 40.2523H150.392V0.27832H158.215V9.57819C158.215 10.7599 158.112 12.6525 157.907 15.2557H158.215C160.044 12.4127 162.754 10.9911 166.345 10.9911ZM163.832 17.2596C161.9 17.2596 160.489 17.859 159.6 19.0579C158.711 20.2396 158.249 22.2007 158.215 24.941V25.7887C158.215 28.8716 158.668 31.0809 159.574 32.4168C160.497 33.7527 161.951 34.4206 163.934 34.4206C165.541 34.4206 166.815 33.6842 167.756 32.2113C168.713 30.7213 169.192 28.5633 169.192 25.7373C169.192 22.9114 168.713 20.7963 167.756 19.3919C166.798 17.9703 165.49 17.2596 163.832 17.2596Z" fill="white"/>
<path d="M116.768 2.69385H128.438C133.756 2.69385 137.611 3.45599 140.005 4.98028C142.416 6.48744 143.621 8.89376 143.621 12.1992C143.621 14.4429 143.091 16.284 142.031 17.7226C140.988 19.1613 139.595 20.0262 137.851 20.3174V20.5743C140.227 21.1052 141.937 22.0985 142.98 23.5543C144.04 25.0101 144.57 26.9454 144.57 29.3603C144.57 32.7857 143.331 35.4575 140.851 37.3757C138.389 39.2939 135.038 40.253 130.797 40.253H116.768V2.69385ZM124.719 17.5685H129.336C131.49 17.5685 133.046 17.2345 134.003 16.5666C134.978 15.8986 135.465 14.794 135.465 13.2525C135.465 11.8139 134.935 10.7863 133.875 10.1697C132.832 9.53602 131.174 9.21917 128.9 9.21917H124.719V17.5685ZM124.719 23.8883V33.6763H129.9C132.088 33.6763 133.704 33.2567 134.747 32.4175C135.79 31.5782 136.312 30.2937 136.312 28.5639C136.312 25.4468 134.089 23.8883 129.643 23.8883H124.719Z" fill="white"/>
<path d="M57.529 40.5352L56.0158 36.6303H55.8106C54.4941 38.2916 53.1348 39.4477 51.7327 40.0985C50.3477 40.7322 48.5353 41.049 46.2954 41.049C43.5426 41.049 41.3711 40.2612 39.781 38.6855C38.2079 37.1099 37.4214 34.8662 37.4214 31.9547C37.4214 28.9061 38.4815 26.6625 40.6017 25.2238C42.739 23.7681 45.9535 22.9631 50.2451 22.809L55.2207 22.6548V21.396C55.2207 18.4844 53.7332 17.0287 50.7581 17.0287C48.4669 17.0287 45.7739 17.7223 42.6791 19.1096L40.0887 13.8174C43.3887 12.0876 47.0477 11.2227 51.0659 11.2227C54.913 11.2227 57.8624 12.0619 59.9142 13.7403C61.966 15.4187 62.9919 17.9706 62.9919 21.396V40.5352H57.529ZM55.2207 27.2277L52.1943 27.3304C49.9203 27.3989 48.2275 27.81 47.1161 28.5636C46.0047 29.3171 45.4491 30.4646 45.4491 32.0061C45.4491 34.2154 46.7143 35.3201 49.2449 35.3201C51.0573 35.3201 52.5021 34.7977 53.5793 33.753C54.6736 32.7083 55.2207 31.321 55.2207 29.5912V27.2277Z" fill="white"/>
<path d="M27.6736 40.535L24.955 31.5948H11.2849L8.56626 40.535H0L13.2341 2.82178H22.9545L36.2399 40.535H27.6736ZM23.0571 24.9154C20.5436 16.8144 19.1245 12.233 18.7996 11.1711C18.4918 10.1092 18.2696 9.27003 18.1328 8.65346C17.5685 10.8457 15.9527 16.2663 13.2854 24.9154H23.0571Z" fill="white"/>
<path d="M435.664 534H394.664V507H402.174V528.47H411.409V507H418.919V528.47H428.153V507H435.664V534Z" fill="white"/>
<path d="M367.993 528.647H379.103V499H386.664V535H341.664V499H349.249V528.647H360.359V499H367.993V528.647Z" fill="white"/>
<path d="M386.613 433V443.769H397.715V433H405.664V461H397.715V449.454H386.613V461H378.664V433H386.613Z" fill="white"/>
<path d="M370.664 461H363.184V445.462H349.168V461H341.664V425H349.168V439.109H363.184V425H370.664V461Z" fill="white"/>
<path d="M387.664 359V364.735H376.17V387H368.664V359H387.664Z" fill="white"/>
<path d="M363.664 350V356.479H349.045V387H341.664V350H363.664Z" fill="white"/>
<path d="M545.436 528.801H548.664V544H543.251V534.232H512.664V507H518.667V528.654H526.048V507H532.051V528.654H539.433V507H545.436V528.801Z" fill="white"/>
<path d="M482.865 528.972H494.342V499H502.153V529.271H507.664V546H500.105V535.395H455.664V499H463.5V528.972H474.977V499H482.865V528.972Z" fill="white"/>
<path d="M502.697 445.462C502.697 448.232 503.162 450.325 504.092 451.743C505.039 453.161 506.572 453.87 508.69 453.87C510.791 453.87 512.297 453.169 513.21 451.768C514.14 450.35 514.605 448.248 514.605 445.462C514.605 442.693 514.14 440.617 513.21 439.232C512.28 437.848 510.756 437.155 508.638 437.155C506.537 437.155 505.022 437.848 504.092 439.232C503.162 440.6 502.697 442.677 502.697 445.462ZM522.664 445.462C522.664 450.016 521.424 453.578 518.944 456.147C516.465 458.716 513.012 460 508.586 460C505.814 460 503.369 459.416 501.251 458.248C499.132 457.064 497.505 455.371 496.369 453.169C495.232 450.967 494.664 448.398 494.664 445.462C494.664 440.892 495.895 437.339 498.358 434.803C500.82 432.268 504.281 431 508.741 431C511.514 431 513.959 431.584 516.077 432.752C518.195 433.919 519.822 435.596 520.959 437.781C522.096 439.966 522.664 442.527 522.664 445.462Z" fill="white"/>
<path d="M490.664 440.987C490.664 447.098 489.112 451.794 486.009 455.076C482.905 458.359 478.457 460 472.664 460C466.871 460 462.422 458.359 459.319 455.076C456.216 451.794 454.664 447.081 454.664 440.937C454.664 434.793 456.216 430.105 459.319 426.873C462.44 423.624 466.905 422 472.716 422C478.526 422 482.966 423.633 486.034 426.898C489.121 430.164 490.664 434.86 490.664 440.987ZM463.069 440.987C463.069 445.111 463.871 448.217 465.474 450.304C467.078 452.392 469.474 453.435 472.664 453.435C479.06 453.435 482.259 449.286 482.259 440.987C482.259 432.672 479.078 428.514 472.716 428.514C469.526 428.514 467.121 429.566 465.5 431.67C463.879 433.758 463.069 436.863 463.069 440.987Z" fill="white"/>
<path d="M515.758 375.801V359.578H509.945C509.522 362.598 508.938 365.465 508.194 368.176C507.466 370.888 506.451 373.43 505.148 375.801H515.758ZM527.664 391H520.708V381.232H501.619V391H494.664V375.801H497.05C498.675 373.381 500.037 370.328 501.137 366.642C502.237 362.956 503.007 358.742 503.447 354H523.501V375.801H527.664V391Z" fill="white"/>
<path d="M454.664 374.697H457.5C459.926 370.089 461.842 365.489 463.248 360.897C464.653 356.289 465.699 351.323 466.385 346H487.77V374.697H492.664V391H485.159V380.846H462.168V391H454.664V374.697ZM472.559 352.149C472.024 355.788 471.129 359.641 469.874 363.709C468.636 367.777 467.238 371.44 465.682 374.697H480.014V352.149H472.559Z" fill="white"/>
<path d="M617.95 508V518.433H623.24C627.471 518.433 630.596 519.093 632.613 520.413C634.647 521.733 635.664 523.73 635.664 526.403C635.664 532.134 631.621 535 623.535 535H610.422V513.53H601.664V508H617.95ZM628.16 526.499C628.16 525.453 627.734 524.696 626.881 524.229C626.044 523.762 624.773 523.529 623.068 523.529H617.95V529.904H623.166C626.495 529.904 628.16 528.769 628.16 526.499Z" fill="white"/>
<path d="M598.664 524.747C598.664 528.49 597.386 531.305 594.831 533.193C592.292 535.064 588.525 536 583.531 536H572.859V506.353H563.664V500H580.6V513.814H583.682C588.459 513.814 592.15 514.766 594.755 516.67C597.361 518.575 598.664 521.267 598.664 524.747ZM580.6 529.746H583.206C585.828 529.746 587.749 529.335 588.968 528.514C590.187 527.677 590.797 526.421 590.797 524.747C590.797 523.089 590.179 521.899 588.943 521.176C587.707 520.438 585.594 520.068 582.604 520.068H580.6V529.746Z" fill="white"/>
<path d="M626.664 431V460H619.134V436.94H609.169V460H601.664V431H626.664Z" fill="white"/>
<path d="M592.664 460H584.919V429.529H571.434V460H563.664V423H592.664V460Z" fill="white"/>
<path d="M604.068 362.43C602.435 362.43 601.156 362.947 600.231 363.981C599.305 364.999 598.775 366.45 598.641 368.335H609.444C609.411 366.45 608.914 364.999 607.955 363.981C606.996 362.947 605.7 362.43 604.068 362.43ZM605.153 386C600.609 386 597.059 384.757 594.501 382.272C591.943 379.786 590.664 376.267 590.664 371.713C590.664 367.025 591.842 363.406 594.198 360.853C596.571 358.284 599.844 357 604.017 357C608.006 357 611.11 358.126 613.332 360.378C615.553 362.63 616.664 365.741 616.664 369.711V373.414H598.464C598.548 375.583 599.196 377.276 600.408 378.494C601.619 379.711 603.319 380.32 605.507 380.32C607.206 380.32 608.813 380.145 610.328 379.795C611.842 379.444 613.424 378.886 615.074 378.118V384.023C613.727 384.691 612.288 385.183 610.757 385.5C609.226 385.833 607.358 386 605.153 386Z" fill="white"/>
<path d="M584.664 386H563.664V348H584.664V354.602H571.395V362.945H583.741V369.547H571.395V379.346H584.664V386Z" fill="white"/>
<path d="M724.103 517.433H727.206C730.81 517.433 733.477 518.093 735.208 519.413C736.939 520.733 737.805 522.73 737.805 525.403C737.805 528.252 736.939 530.402 735.208 531.851C733.477 533.284 730.887 534 727.439 534H717.664V507H724.103V517.433ZM731.365 525.499C731.365 524.453 731 523.696 730.268 523.229C729.536 522.762 728.445 522.529 726.995 522.529H724.103V528.904H727.08C729.937 528.904 731.365 527.769 731.365 525.499ZM747.664 534H741.225V507H747.664V534Z" fill="white"/>
<path d="M695.874 523.747C695.874 527.49 694.647 530.305 692.194 532.193C689.757 534.064 686.141 535 681.348 535H671.664V499H679.169V512.814H681.59C686.125 512.814 689.636 513.774 692.121 515.695C694.623 517.599 695.874 520.283 695.874 523.747ZM679.169 528.746H681.13C683.599 528.746 685.407 528.335 686.553 527.514C687.699 526.677 688.272 525.421 688.272 523.747C688.272 522.073 687.715 520.874 686.601 520.152C685.504 519.43 683.567 519.068 680.791 519.068H679.169V528.746ZM707.664 535H700.183V499H707.664V535Z" fill="white"/>
<path d="M718.367 460.135C715.222 460.135 712.755 458.937 710.967 456.54H710.584C710.84 458.886 710.967 460.244 710.967 460.613V472H703.664V431.528H709.603L710.632 435.173H710.967C712.676 432.391 715.206 431 718.558 431C721.719 431 724.194 432.282 725.982 434.846C727.77 437.41 728.664 440.971 728.664 445.53C728.664 448.53 728.241 451.136 727.395 453.348C726.565 455.56 725.375 457.244 723.827 458.4C722.278 459.557 720.458 460.135 718.367 460.135ZM716.212 437.134C714.408 437.134 713.091 437.72 712.261 438.893C711.43 440.05 710.999 441.969 710.967 444.65V445.479C710.967 448.496 711.391 450.658 712.237 451.965C713.099 453.272 714.456 453.926 716.307 453.926C719.58 453.926 721.217 451.094 721.217 445.429C721.217 442.664 720.809 440.594 719.995 439.22C719.197 437.829 717.936 437.134 716.212 437.134Z" fill="white"/>
<path d="M679.644 440.412H682.27C684.724 440.412 686.56 439.939 687.779 438.995C688.997 438.033 689.606 436.641 689.606 434.819C689.606 432.98 689.092 431.622 688.062 430.744C687.049 429.867 685.453 429.428 683.274 429.428H679.644V440.412ZM697.664 434.54C697.664 438.522 696.394 441.567 693.854 443.676C691.331 445.785 687.736 446.84 683.068 446.84H679.644V460H671.664V423H683.686C688.251 423 691.717 423.97 694.086 425.91C696.471 427.834 697.664 430.71 697.664 434.54Z" fill="white"/>
<path d="M711.068 367.054C709.435 367.054 708.156 367.557 707.231 368.564C706.305 369.555 705.775 370.968 705.641 372.803H716.444C716.411 370.968 715.914 369.555 714.955 368.564C713.996 367.557 712.7 367.054 711.068 367.054ZM712.153 390C707.609 390 704.059 388.79 701.501 386.371C698.943 383.951 697.664 380.524 697.664 376.091C697.664 371.528 698.842 368.004 701.198 365.519C703.571 363.018 706.844 361.768 711.017 361.768C715.006 361.768 718.11 362.864 720.332 365.056C722.553 367.249 723.664 370.277 723.664 374.142V377.747H705.464C705.548 379.859 706.196 381.507 707.408 382.692C708.619 383.878 710.319 384.471 712.507 384.471C714.206 384.471 715.813 384.3 717.328 383.959C718.842 383.618 720.424 383.074 722.074 382.327V388.076C720.727 388.725 719.288 389.204 717.757 389.513C716.226 389.838 714.358 390 712.153 390ZM702.435 355.288C702.435 354.233 702.746 353.421 703.369 352.853C704.008 352.284 704.866 352 705.943 352C707.054 352 707.921 352.3 708.543 352.901C709.183 353.502 709.503 354.298 709.503 355.288C709.503 356.263 709.183 357.05 708.543 357.651C707.904 358.236 707.037 358.528 705.943 358.528C704.866 358.528 704.008 358.244 703.369 357.676C702.746 357.107 702.435 356.312 702.435 355.288ZM712.608 355.288C712.608 354.152 712.944 353.324 713.617 352.804C714.307 352.268 715.157 352 716.167 352C717.261 352 718.127 352.292 718.767 352.877C719.423 353.462 719.751 354.265 719.751 355.288C719.751 356.279 719.423 357.067 718.767 357.651C718.11 358.236 717.244 358.528 716.167 358.528C715.157 358.528 714.307 358.268 713.617 357.749C712.944 357.213 712.608 356.393 712.608 355.288Z" fill="white"/>
<path d="M691.664 389H670.664V353.968H691.664V360.054H678.395V367.746H690.741V373.832H678.395V382.866H691.664V389ZM672.659 347.235C672.659 346.196 672.967 345.398 673.582 344.839C674.214 344.28 675.062 344 676.126 344C677.223 344 678.079 344.296 678.695 344.887C679.327 345.478 679.642 346.26 679.642 347.235C679.642 348.193 679.327 348.968 678.695 349.559C678.063 350.134 677.207 350.422 676.126 350.422C675.062 350.422 674.214 350.142 673.582 349.583C672.967 349.024 672.659 348.241 672.659 347.235ZM682.71 347.235C682.71 346.117 683.043 345.302 683.708 344.791C684.389 344.264 685.229 344 686.227 344C687.308 344 688.164 344.288 688.796 344.863C689.444 345.438 689.768 346.228 689.768 347.235C689.768 348.209 689.444 348.984 688.796 349.559C688.147 350.134 687.291 350.422 686.227 350.422C685.229 350.422 684.389 350.166 683.708 349.655C683.043 349.128 682.71 348.321 682.71 347.235Z" fill="white"/>
<path d="M812.393 517.433H817.841C822.2 517.433 825.427 518.093 827.521 519.413C829.616 520.733 830.664 522.73 830.664 525.403C830.664 531.134 826.491 534 818.145 534H804.664V507H812.393V517.433ZM822.935 525.499C822.935 524.453 822.496 523.696 821.617 523.229C820.739 522.762 819.429 522.529 817.689 522.529H812.393V528.904H817.791C821.22 528.904 822.935 527.769 822.935 525.499Z" fill="white"/>
<path d="M799.664 523.747C799.664 531.249 794.582 535 784.417 535H773.664V499H781.489V512.814H784.569C789.382 512.814 793.101 513.766 795.726 515.67C798.351 517.575 799.664 520.267 799.664 523.747ZM781.489 528.746H784.114C786.756 528.746 788.692 528.335 789.92 527.514C791.149 526.677 791.763 525.421 791.763 523.747C791.763 522.089 791.14 520.899 789.895 520.176C788.65 519.438 786.512 519.068 783.483 519.068H781.489V528.746Z" fill="white"/>
<path d="M818.048 460C809.125 460 804.664 455.221 804.664 445.663C804.664 440.909 805.878 437.28 808.305 434.778C810.732 432.259 814.211 431 818.741 431C822.057 431 825.031 431.634 827.664 432.902L825.356 438.807C824.125 438.323 822.98 437.931 821.92 437.631C820.86 437.314 819.801 437.155 818.741 437.155C814.672 437.155 812.638 439.974 812.638 445.613C812.638 451.084 814.672 453.82 818.741 453.82C820.245 453.82 821.638 453.628 822.92 453.244C824.202 452.844 825.484 452.227 826.766 451.393V457.923C825.501 458.707 824.219 459.249 822.92 459.55C821.638 459.85 820.014 460 818.048 460Z" fill="white"/>
<path d="M790.906 429.351C787.974 429.351 785.703 430.434 784.095 432.601C782.486 434.751 781.682 437.754 781.682 441.611C781.682 449.636 784.757 453.649 790.906 453.649C793.487 453.649 796.612 453.017 800.281 451.753V458.154C797.265 459.385 793.897 460 790.177 460C784.832 460 780.743 458.416 777.912 455.249C775.08 452.065 773.664 447.503 773.664 441.562C773.664 437.82 774.359 434.546 775.75 431.739C777.141 428.916 779.135 426.758 781.732 425.265C784.346 423.755 787.404 423 790.906 423C794.475 423 798.061 423.845 801.664 425.536L799.15 431.739C797.776 431.099 796.394 430.541 795.003 430.065C793.612 429.589 792.247 429.351 790.906 429.351Z" fill="white"/>
<path d="M836.169 372.599V359H843.158V372.599L852.952 359H860.704L850.565 372.424L861.664 387H853.641L843.158 372.8V387H836.169V372.8L825.686 387H817.664L828.762 372.424L818.624 359H826.375L836.169 372.599Z" fill="white"/>
<path d="M781.859 367.766L769.4 350H777.494L789.497 367.918V350H796.831V367.918L808.833 350H816.953L804.469 367.766L817.664 387H809.239L796.831 368.247V387H789.497V368.247L777.088 387H768.664L781.859 367.766Z" fill="white"/>
<path d="M1129.11 533H1120.66L1128.37 521.93C1126.52 521.179 1125.13 520.094 1124.17 518.674C1123.23 517.255 1122.76 515.586 1122.76 513.665C1122.76 510.961 1123.79 508.84 1125.86 507.304C1127.94 505.768 1130.77 505 1134.36 505H1147.66V533H1139.86V522.581H1135.56L1129.11 533ZM1130.41 513.716C1130.41 514.884 1130.88 515.803 1131.82 516.47C1132.76 517.122 1133.99 517.447 1135.51 517.447H1139.86V510.385H1134.51C1133.23 510.385 1132.22 510.693 1131.49 511.311C1130.77 511.912 1130.41 512.714 1130.41 513.716Z" fill="white"/>
<path d="M1103.99 519.419L1095.35 534H1086.66L1097.17 517.287C1095.08 516.421 1093.48 515.087 1092.37 513.285C1091.26 511.465 1090.7 509.325 1090.7 506.865C1090.7 503.382 1091.9 500.705 1094.29 498.833C1096.7 496.944 1100.15 496 1104.64 496H1116.66V534H1108.84V519.419H1103.99ZM1108.84 502.602H1104.97C1102.95 502.602 1101.39 502.974 1100.27 503.72C1099.16 504.465 1098.61 505.704 1098.61 507.436C1098.61 509.117 1099.15 510.443 1100.22 511.413C1101.3 512.383 1102.95 512.869 1105.17 512.869H1108.84V502.602Z" fill="white"/>
<path d="M1074.66 520.465C1074.66 524.736 1073.64 528.06 1071.6 530.436C1069.56 532.812 1066.74 534 1063.12 534C1059.88 534 1057.28 533.037 1055.33 531.111C1053.39 529.185 1052.22 526.413 1051.81 522.795H1047.38V533.534H1040.66V507.489H1047.38V517.506H1051.89C1052.32 514.183 1053.53 511.605 1055.53 509.772C1057.54 507.924 1060.12 507 1063.26 507C1066.74 507 1069.5 508.211 1071.56 510.634C1073.63 513.041 1074.66 516.318 1074.66 520.465ZM1058.57 520.465C1058.57 523.059 1058.93 525.016 1059.65 526.336C1060.36 527.64 1061.55 528.292 1063.21 528.292C1064.84 528.292 1066.02 527.64 1066.74 526.336C1067.46 525.016 1067.82 523.059 1067.82 520.465C1067.82 517.871 1067.45 515.938 1066.71 514.664C1065.99 513.375 1064.81 512.731 1063.17 512.731C1061.54 512.731 1060.36 513.375 1059.65 514.664C1058.93 515.953 1058.57 517.887 1058.57 520.465Z" fill="white"/>
<path d="M1032.66 515.987C1032.66 522.047 1031.26 526.735 1028.46 530.051C1025.67 533.35 1021.67 535 1016.44 535C1011.65 535 1007.87 533.603 1005.12 530.809C1002.37 527.998 1000.77 523.916 1000.34 518.563H993.377V534.495H985.664V497.581H993.377V512.049H1000.49C1001.06 507.184 1002.7 503.464 1005.42 500.888C1008.16 498.296 1011.85 497 1016.49 497C1021.73 497 1025.74 498.65 1028.51 501.949C1031.28 505.248 1032.66 509.928 1032.66 515.987ZM1008.26 515.987C1008.26 520.095 1008.95 523.2 1010.35 525.304C1011.74 527.392 1013.77 528.435 1016.44 528.435C1021.95 528.435 1024.7 524.286 1024.7 515.987C1024.7 511.88 1024.01 508.775 1022.64 506.67C1021.28 504.566 1019.24 503.514 1016.54 503.514C1013.82 503.514 1011.76 504.566 1010.35 506.67C1008.95 508.775 1008.26 511.88 1008.26 515.987Z" fill="white"/>
<path d="M922.244 534C918.752 534 915.892 533.444 913.664 532.333V526.583C916.557 527.872 919.276 528.516 921.82 528.516C923.649 528.516 925.063 528.001 926.061 526.97C927.058 525.939 927.64 524.393 927.807 522.331H917.281V517.427H927.807C927.674 515.446 927.158 513.956 926.26 512.958C925.379 511.959 924.107 511.46 922.444 511.46C920.465 511.46 918.303 511.967 915.959 512.982L913.813 507.933C915.061 507.369 916.466 506.91 918.029 506.556C919.609 506.185 921.18 506 922.743 506C927.1 506 930.343 507.144 932.471 509.431C934.6 511.718 935.664 515.148 935.664 519.722C935.664 524.425 934.533 527.984 932.272 530.4C930.027 532.8 926.684 534 922.244 534Z" fill="white"/>
<path d="M890.617 503.523C888.977 503.523 887.361 503.759 885.771 504.231C884.197 504.703 882.64 505.267 881.099 505.925L878.664 499.604C882.507 497.868 886.541 497 890.766 497C896.15 497 900.308 498.686 903.241 502.057C906.189 505.411 907.664 510.08 907.664 516.063C907.664 522.165 906.148 526.851 903.116 530.12C900.101 533.373 895.744 535 890.045 535C886.119 535 882.54 534.368 879.31 533.104V526.53C883.336 527.828 886.765 528.477 889.598 528.477C892.762 528.477 895.173 527.693 896.829 526.126C898.502 524.558 899.414 522.207 899.563 519.072H883.808V512.65H899.513C899.414 509.785 898.569 507.551 896.978 505.95C895.388 504.332 893.267 503.523 890.617 503.523Z" fill="white"/>
<path d="M1147.15 436.547C1151.68 436.921 1155.23 438.329 1157.8 440.771C1160.38 443.212 1161.66 446.402 1161.66 450.341C1161.66 454.361 1160.39 457.584 1157.85 460.009C1155.31 462.418 1151.74 463.809 1147.15 464.184V476H1140.28V464.184C1135.7 463.76 1132.11 462.32 1129.52 459.862C1126.95 457.388 1125.66 454.215 1125.66 450.341C1125.66 446.223 1126.91 442.976 1129.4 440.6C1131.89 438.207 1135.52 436.856 1140.28 436.547V426H1147.15V436.547ZM1133.29 450.341C1133.29 452.636 1133.91 454.507 1135.16 455.956C1136.4 457.388 1138.11 458.251 1140.28 458.544V442.138C1138.19 442.414 1136.5 443.301 1135.2 444.799C1133.93 446.296 1133.29 448.144 1133.29 450.341ZM1154.07 450.341C1154.07 448.192 1153.46 446.386 1152.25 444.921C1151.03 443.44 1149.33 442.545 1147.15 442.235V458.544C1149.3 458.251 1150.99 457.38 1152.22 455.932C1153.45 454.483 1154.07 452.619 1154.07 450.341Z" fill="white"/>
<path d="M1104.2 452.886H1104.56C1107.28 452.886 1109.41 452.216 1110.95 450.874C1112.5 449.517 1113.28 447.665 1113.28 445.317C1113.28 443.146 1112.56 441.405 1111.13 440.096C1109.69 438.77 1107.73 438.108 1105.24 438.108H1104.2V452.886ZM1097.13 464V458.611H1096.57C1093.42 458.611 1090.67 458.092 1088.3 457.054C1085.93 456 1084.06 454.427 1082.69 452.335C1081.34 450.244 1080.66 447.92 1080.66 445.365C1080.66 442.89 1081.26 440.663 1082.46 438.683C1083.68 436.687 1085.43 435.13 1087.72 434.012C1090 432.878 1092.69 432.311 1095.78 432.311H1097.13V428H1104.2V432.311H1105.55C1108.62 432.311 1111.3 432.878 1113.59 434.012C1115.87 435.13 1117.62 436.687 1118.84 438.683C1120.06 440.663 1120.66 442.89 1120.66 445.365C1120.66 447.92 1119.98 450.244 1118.61 452.335C1117.26 454.427 1115.4 456 1113.03 457.054C1110.66 458.092 1107.91 458.611 1104.76 458.611H1104.2V464H1097.13ZM1097.13 438.108H1096.09C1093.6 438.108 1091.64 438.762 1090.2 440.072C1088.76 441.381 1088.04 443.13 1088.04 445.317C1088.04 447.617 1088.81 449.453 1090.33 450.826C1091.85 452.2 1094 452.886 1096.77 452.886H1097.13V438.108Z" fill="white"/>
<path d="M1019.66 438H1027.98L1033.23 454.018C1033.68 455.41 1033.99 457.057 1034.15 458.958H1034.3C1034.48 457.21 1034.84 455.563 1035.37 454.018L1040.52 438H1048.66L1036.89 470.112C1035.81 473.083 1034.27 475.307 1032.26 476.784C1030.27 478.262 1027.94 479 1025.26 479C1023.95 479 1022.67 478.856 1021.41 478.567V472.404C1022.32 472.625 1023.31 472.735 1024.39 472.735C1025.74 472.735 1026.91 472.311 1027.9 471.462C1028.92 470.63 1029.7 469.365 1030.27 467.668L1030.72 466.267L1019.66 438Z" fill="white"/>
<path d="M1019.66 431L1008.17 456.117C1006.73 459.275 1005.37 461.543 1004.1 462.919C1002.85 464.296 1001.35 465.324 999.625 466.004C997.896 466.668 995.793 467 993.318 467C991.199 467 989.224 466.757 987.393 466.271V459.81C988.885 460.393 990.741 460.684 992.962 460.684C994.369 460.684 995.505 460.377 996.37 459.761C997.234 459.13 997.955 458.045 998.531 456.506L985.664 431H994.005L1003.16 450.798H1003.41L1003.87 449.583L1011.55 431H1019.66Z" fill="white"/>
<path d="M934.664 431V436.94H925.849V460H918.503V436.94H909.664V431H934.664Z" fill="white"/>
<path d="M895.955 460H888.373V429.529H878.664V423H905.664V429.529H895.955V460Z" fill="white"/>
<path d="M1130.82 358.033V369.089C1130.82 370.257 1130.63 373.109 1130.26 377.645L1142.77 358.033H1151.66V386H1144.51V374.843C1144.51 372.858 1144.67 370.057 1145 366.438L1132.54 386H1123.66V358.033H1130.82ZM1149.48 346C1149.17 349.119 1148.04 351.395 1146.06 352.829C1144.09 354.247 1141.25 354.956 1137.53 354.956C1133.7 354.956 1130.86 354.272 1129.02 352.904C1127.2 351.537 1126.17 349.235 1125.94 346H1132.56C1132.67 347.718 1133.09 348.927 1133.8 349.627C1134.52 350.311 1135.82 350.653 1137.68 350.653C1139.31 350.653 1140.52 350.278 1141.31 349.527C1142.12 348.76 1142.61 347.584 1142.79 346H1149.48Z" fill="white"/>
<path d="M1081.66 349.016H1088.65V366.876L1088.55 371.657L1088.3 377.096H1088.45L1105.37 349.016H1114.66V386H1107.75V368.242C1107.75 365.864 1107.9 362.339 1108.2 357.668H1108L1091.01 386H1081.66V349.016ZM1110.3 337C1109.99 340.154 1108.81 342.456 1106.77 343.906C1104.73 345.34 1101.79 346.056 1097.95 346.056C1093.99 346.056 1091.06 345.365 1089.16 343.982C1087.27 342.599 1086.21 340.272 1085.97 337H1092.81C1092.93 338.737 1093.36 339.96 1094.09 340.668C1094.84 341.359 1096.18 341.705 1098.1 341.705C1099.79 341.705 1101.04 341.326 1101.86 340.567C1102.69 339.791 1103.2 338.602 1103.39 337H1110.3Z" fill="white"/>
<path d="M1034.82 358V369.07C1034.82 370.239 1034.63 373.094 1034.26 377.635L1046.77 358H1055.66V386H1048.51V374.83C1048.51 372.843 1048.67 370.038 1049 366.415L1036.54 386H1027.66V358H1034.82Z" fill="white"/>
<path d="M985.664 349H992.867V366.867L992.763 371.65L992.505 377.092H992.66L1010.09 349H1019.66V386H1012.54V368.234C1012.54 365.855 1012.69 362.329 1013 357.655H1012.8L995.293 386H985.664V349Z" fill="white"/>
<path d="M921.471 369.285C924.293 369.285 926.291 369.051 927.465 368.584C928.656 368.117 929.251 367.375 929.251 366.357C929.251 365.456 928.819 364.781 927.954 364.33C927.09 363.88 925.663 363.655 923.673 363.655C922.417 363.655 920.99 363.813 919.392 364.13C917.81 364.447 916.366 364.881 915.061 365.431L912.859 360.102C914.8 359.351 916.684 358.817 918.511 358.5C920.338 358.167 922.376 358 924.627 358C928.036 358 930.768 358.667 932.823 360.002C934.878 361.336 935.905 363.146 935.905 365.431C935.905 368.584 934.087 370.636 930.45 371.587V371.837C932.684 372.404 934.274 373.213 935.22 374.264C936.183 375.298 936.664 376.658 936.664 378.343C936.664 380.044 936.126 381.554 935.049 382.871C933.973 384.189 932.415 385.207 930.376 385.924C928.338 386.641 925.94 387 923.184 387C918.617 387 915.11 386.425 912.664 385.274V378.968C914.066 379.635 915.6 380.161 917.263 380.544C918.943 380.928 920.566 381.12 922.132 381.12C924.562 381.12 926.38 380.845 927.587 380.294C928.794 379.727 929.398 378.926 929.398 377.892C929.398 376.758 928.762 375.924 927.49 375.39C926.217 374.84 924.26 374.564 921.618 374.564H918.731V369.285H921.471Z" fill="white"/>
<path d="M905.563 358.178C905.563 360.554 904.748 362.518 903.118 364.069C901.488 365.619 899.279 366.605 896.491 367.027V367.178C899.768 367.515 902.278 368.451 904.023 369.985C905.784 371.519 906.664 373.516 906.664 375.977C906.664 379.381 905.327 382.07 902.653 384.042C899.996 386.014 896.312 387 891.6 387C886.351 387 882.136 386.334 878.957 385.003V378.429C880.49 379.188 882.283 379.786 884.337 380.224C886.408 380.646 888.34 380.856 890.133 380.856C896.149 380.856 899.156 379.044 899.156 375.42C899.156 373.786 898.186 372.53 896.246 371.653C894.323 370.777 891.47 370.339 887.687 370.339H884.337V364.22H887.345C891.127 364.22 893.882 363.849 895.611 363.108C897.339 362.366 898.203 361.136 898.203 359.417C898.203 358.152 897.657 357.149 896.564 356.408C895.488 355.649 893.866 355.27 891.698 355.27C888.34 355.27 885.095 356.273 881.965 358.279L878.664 353.045C880.702 351.646 882.862 350.627 885.144 349.986C887.427 349.329 889.962 349 892.749 349C896.646 349 899.751 349.843 902.066 351.528C904.398 353.214 905.563 355.43 905.563 358.178Z" fill="white"/>
<path d="M412 192H389V187.17L402.493 168.252H389.807V162H411.531V167.313L398.403 185.748H412V192Z" fill="white"/>
<path d="M372 192H345V186.776L362.396 160.654H345.472V154H371.528V159.198L354.157 185.346H372V192Z" fill="white"/>
<path d="M392.746 96.4599C392.746 99.4199 393.195 101.658 394.091 103.173C395.005 104.689 396.482 105.447 398.525 105.447C400.551 105.447 402.004 104.698 402.884 103.2C403.78 101.684 404.229 99.4377 404.229 96.4599C404.229 93.4999 403.78 91.2798 402.884 89.7998C401.987 88.3198 400.518 87.5798 398.475 87.5798C396.449 87.5798 394.988 88.3198 394.091 89.7998C393.195 91.262 392.746 93.482 392.746 96.4599ZM412 96.4599C412 101.328 410.804 105.135 408.413 107.881C406.022 110.627 402.693 112 398.425 112C395.752 112 393.394 111.376 391.351 110.128C389.309 108.862 387.74 107.052 386.644 104.698C385.548 102.344 385 99.5982 385 96.4599C385 91.5741 386.187 87.776 388.562 85.0656C390.936 82.3552 394.274 81 398.575 81C401.248 81 403.606 81.6241 405.649 82.8723C407.691 84.1205 409.26 85.9126 410.356 88.2485C411.452 90.5844 412 93.3215 412 96.4599Z" fill="white"/>
<path d="M380 97.487C380 103.758 378.491 108.578 375.474 111.947C372.457 115.316 368.132 117 362.5 117C356.868 117 352.543 115.316 349.526 111.947C346.509 108.578 345 103.741 345 97.4352C345 91.1296 346.509 86.3183 349.526 83.0013C352.56 79.6671 356.901 78 362.55 78C368.199 78 372.516 79.6757 375.499 83.0272C378.5 86.3787 380 91.1987 380 97.487ZM353.172 97.487C353.172 101.72 353.951 104.907 355.51 107.049C357.069 109.191 359.399 110.262 362.5 110.262C368.719 110.262 371.828 106.004 371.828 97.487C371.828 88.9528 368.736 84.6857 362.55 84.6857C359.449 84.6857 357.111 85.7654 355.535 87.9249C353.96 90.0671 353.172 93.2545 353.172 97.487Z" fill="white"/>
<path d="M391.307 41C387.788 41 385.019 39.6732 383.001 37.0197C381 34.3661 380 30.6893 380 25.9892C380 21.2198 381.018 17.5082 383.055 14.8547C385.109 12.1838 387.931 10.8483 391.522 10.8483C395.291 10.8483 398.167 12.2705 400.149 15.1148H400.417C400.006 12.9469 399.801 11.0131 399.801 9.31345V0H408V40.4797H401.73L400.149 36.7075H399.801C397.943 39.5692 395.112 41 391.307 41ZM394.174 34.6783C396.264 34.6783 397.791 34.0886 398.756 32.9093C399.738 31.7299 400.274 29.7267 400.364 26.8997V26.0412C400.364 22.9194 399.863 20.6821 398.863 19.3293C397.881 17.9765 396.273 17.3001 394.04 17.3001C392.218 17.3001 390.798 18.0546 389.78 19.5635C388.78 21.055 388.279 23.2316 388.279 26.0933C388.279 28.9549 388.789 31.1055 389.807 32.5451C390.825 33.9672 392.281 34.6783 394.174 34.6783Z" fill="white"/>
<path d="M375 20.6361C375 26.8915 373.302 31.6826 369.905 35.0096C366.525 38.3365 361.636 40 355.239 40H345V2H356.352C362.255 2 366.838 3.63748 370.103 6.91245C373.368 10.1874 375 14.762 375 20.6361ZM367.036 20.844C367.036 12.6826 363.607 8.60192 356.748 8.60192H352.667V33.3461H355.956C363.343 33.3461 367.036 29.1788 367.036 20.844Z" fill="white"/>
<path d="M510.879 113.135C507.483 113.135 504.819 111.937 502.888 109.54H502.474C502.75 111.886 502.888 113.244 502.888 113.613V125H495V84.5279H501.414L502.526 88.1729H502.888C504.733 85.391 507.466 84 511.086 84C514.5 84 517.172 85.282 519.103 87.8461C521.034 90.4102 522 93.9714 522 98.5297C522 101.53 521.543 104.135 520.629 106.348C519.733 108.56 518.448 110.244 516.776 111.4C515.103 112.557 513.138 113.135 510.879 113.135ZM508.552 90.1337C506.603 90.1337 505.181 90.7202 504.284 91.8933C503.388 93.0497 502.922 94.9685 502.888 97.6499V98.4795C502.888 101.496 503.345 103.658 504.259 104.965C505.19 106.272 506.655 106.926 508.655 106.926C512.19 106.926 513.957 104.094 513.957 98.4292C513.957 95.664 513.517 93.5943 512.638 92.2201C511.776 90.8291 510.414 90.1337 508.552 90.1337Z" fill="white"/>
<path d="M470.98 93.3529H473.606C476.06 93.3529 477.896 92.855 479.115 91.8591C480.333 90.8454 480.943 89.3782 480.943 87.4576C480.943 85.5192 480.428 84.0876 479.398 83.1628C478.385 82.238 476.789 81.7757 474.61 81.7757H470.98V93.3529ZM489 87.1642C489 91.3611 487.73 94.5711 485.19 96.7941C482.667 99.0171 479.072 100.129 474.404 100.129H470.98V114H463V75H475.022C479.587 75 483.053 76.0226 485.422 78.0677C487.807 80.0951 489 83.1272 489 87.1642Z" fill="white"/>
<path d="M499.404 18.6169C497.772 18.6169 496.493 19.1519 495.567 20.2217C494.641 21.2744 494.111 22.7757 493.977 24.7256H504.781C504.747 22.7757 504.25 21.2744 503.291 20.2217C502.332 19.1519 501.036 18.6169 499.404 18.6169ZM500.489 43C495.946 43 492.395 41.7144 489.837 39.1432C487.279 36.572 486 32.931 486 28.22C486 23.371 487.178 19.6264 489.534 16.9862C491.907 14.3287 495.18 13 499.353 13C503.342 13 506.447 14.1648 508.668 16.4944C510.889 18.824 512 22.0423 512 26.1493V29.9802H493.8C493.884 32.2235 494.532 33.975 495.744 35.2347C496.955 36.4944 498.655 37.1242 500.843 37.1242C502.542 37.1242 504.15 36.9431 505.664 36.5807C507.179 36.2183 508.761 35.6402 510.41 34.8464V40.9551C509.063 41.6454 507.625 42.1544 506.093 42.4823C504.562 42.8274 502.694 43 500.489 43Z" fill="white"/>
<path d="M482 43H459V5H482V11.6019H467.468V19.9453H480.989V26.5472H467.468V36.3461H482V43Z" fill="white"/>
<path d="M620.72 113.691C622.718 113.691 624.182 113.124 625.112 111.991C626.042 110.841 626.55 108.841 626.636 105.991V105.039C626.636 101.948 626.154 99.7339 625.189 98.3948C624.242 97.0558 622.709 96.3863 620.59 96.3863C616.887 96.3863 615.035 99.2876 615.035 105.09C615.035 107.974 615.492 110.129 616.405 111.554C617.335 112.979 618.773 113.691 620.72 113.691ZM617.903 119.845C614.493 119.845 611.823 118.541 609.894 115.931C607.965 113.305 607 109.657 607 104.987C607 100.283 607.982 96.6094 609.945 93.9657C611.926 91.3219 614.631 90 618.058 90C619.884 90 621.478 90.3433 622.838 91.03C624.199 91.7167 625.396 92.7811 626.43 94.2232H626.636L627.334 90.5408H634V132H626.094V119.923C626.094 118.876 626.206 117.433 626.43 115.597H626.094C625.25 116.987 624.13 118.043 622.735 118.764C621.34 119.485 619.729 119.845 617.903 119.845Z" fill="white"/>
<path d="M603 99.6923C603 104.196 602.207 107.976 600.621 111.031C599.052 114.069 596.741 116.295 593.69 117.709L602.793 128H592.526L585.595 119.411H585C579.207 119.411 574.759 117.709 571.655 114.304C568.552 110.9 567 106.012 567 99.6399C567 93.2679 568.552 88.4059 571.655 85.054C574.776 81.6847 579.241 80 585.052 80C590.862 80 595.302 81.6934 598.371 85.0802C601.457 88.467 603 93.3377 603 99.6923ZM575.405 99.6923C575.405 103.969 576.207 107.19 577.81 109.355C579.414 111.52 581.81 112.602 585 112.602C591.397 112.602 594.595 108.299 594.595 99.6923C594.595 91.0682 591.414 86.7561 585.052 86.7561C581.862 86.7561 579.457 87.8472 577.836 90.0295C576.216 92.1942 575.405 95.4152 575.405 99.6923Z" fill="white"/>
<path d="M610.338 20.307H603.769V43H596.18V20.307H592V16.5546L596.18 14.4614V12.3682C596.18 9.11785 596.96 6.74388 598.519 5.24633C600.078 3.74878 602.575 3 606.008 3C608.629 3 610.96 3.39991 613 4.19974L611.059 9.91768C609.533 9.42417 608.123 9.17741 606.829 9.17741C605.751 9.17741 604.972 9.50925 604.491 10.1729C604.009 10.8196 603.769 11.6535 603.769 12.6745V14.4614H610.338V20.307Z" fill="white"/>
<path d="M575.643 43H568V6H589V12.4282H575.643V21.9692H588.073V28.3721H575.643V43Z" fill="white"/>
<path d="M724.166 88C725.304 88 726.248 88.0737 727 88.2212L726.367 95.252C725.689 95.0881 724.863 95.0061 723.891 95.0061C721.214 95.0061 719.123 95.6207 717.619 96.8499C716.133 98.079 715.391 99.7998 715.391 102.012V116H707V88.5162H713.355L714.593 93.1378H715.006C715.959 91.5973 717.243 90.36 718.857 89.4258C720.489 88.4753 722.259 88 724.166 88Z" fill="white"/>
<path d="M683.228 94.8687H685.882C688.483 94.8687 690.403 94.4441 691.641 93.5951C692.88 92.746 693.499 91.4118 693.499 89.5923C693.499 87.7902 692.862 86.508 691.588 85.7456C690.332 84.9831 688.377 84.6019 685.723 84.6019H683.228V94.8687ZM683.228 101.419V116H675V78H686.307C691.579 78 695.481 78.9444 698.011 80.8331C700.541 82.7045 701.807 85.5549 701.807 89.3844C701.807 91.6197 701.178 93.6124 699.922 95.3625C698.666 97.0953 696.888 98.4555 694.587 99.4432C700.426 107.986 704.231 113.505 706 116H696.87L687.607 101.419H683.228Z" fill="white"/>
<path d="M736 12.5279V16.4243L731.497 17.5555C732.32 18.8124 732.732 20.2201 732.732 21.7787C732.732 24.7952 731.651 27.1498 729.49 28.8424C727.345 30.5183 724.361 31.3562 720.535 31.3562L719.12 31.2808L717.962 31.1551C717.156 31.7584 716.752 32.4288 716.752 33.1662C716.752 34.2722 718.193 34.8253 721.075 34.8253H725.965C729.121 34.8253 731.523 35.4872 733.169 36.8112C734.833 38.1351 735.665 40.0791 735.665 42.6432C735.665 45.9279 734.259 48.4752 731.445 50.2851C728.649 52.095 724.626 53 719.377 53C715.363 53 712.292 52.3129 710.165 50.9387C708.055 49.5812 707 47.6708 707 45.2072C707 43.5146 707.54 42.0985 708.621 40.9589C709.702 39.8193 711.289 39.0065 713.382 38.5205C712.575 38.1854 711.872 37.6407 711.272 36.8866C710.671 36.1157 710.371 35.3029 710.371 34.4482C710.371 33.3756 710.688 32.4874 711.323 31.7836C711.958 31.0629 712.875 30.3591 714.076 29.672C712.567 29.0352 711.366 28.0129 710.474 26.6052C709.599 25.1974 709.161 23.5383 709.161 21.6278C709.161 18.561 710.182 16.1897 712.224 14.5138C714.265 12.8379 717.181 12 720.972 12C721.779 12 722.731 12.0754 723.829 12.2262C724.944 12.3603 725.656 12.4609 725.965 12.5279H736ZM713.793 44.6039C713.793 45.6597 714.308 46.4893 715.337 47.0926C716.384 47.6959 717.842 47.9975 719.712 47.9975C722.525 47.9975 724.729 47.6205 726.325 46.8663C727.92 46.1122 728.718 45.0815 728.718 43.7744C728.718 42.7186 728.246 41.9896 727.303 41.5874C726.359 41.1852 724.901 40.9841 722.928 40.9841H718.862C717.421 40.9841 716.212 41.3109 715.234 41.9644C714.274 42.6348 713.793 43.5146 713.793 44.6039ZM716.65 21.7284C716.65 23.2534 717.001 24.46 717.705 25.3483C718.425 26.2365 719.514 26.6806 720.972 26.6806C722.448 26.6806 723.529 26.2365 724.215 25.3483C724.901 24.46 725.244 23.2534 725.244 21.7284C725.244 18.3431 723.82 16.6505 720.972 16.6505C718.091 16.6505 716.65 18.3431 716.65 21.7284Z" fill="white"/>
<path d="M688.533 20.1776H704V39.8463C701.493 40.642 699.129 41.1956 696.907 41.507C694.702 41.8357 692.444 42 690.133 42C684.249 42 679.751 40.322 676.64 36.9661C673.547 33.5928 672 28.7578 672 22.4611C672 16.3373 673.796 11.5629 677.387 8.13772C680.996 4.71257 685.991 3 692.373 3C696.373 3 700.231 3.77844 703.947 5.33533L701.2 11.7705C698.356 10.3866 695.396 9.69461 692.32 9.69461C688.747 9.69461 685.884 10.8623 683.733 13.1976C681.582 15.5329 680.507 18.6727 680.507 22.6168C680.507 26.7339 681.369 29.8822 683.093 32.0619C684.836 34.2242 687.36 35.3054 690.667 35.3054C692.391 35.3054 694.142 35.1324 695.92 34.7864V26.8723H688.533V20.1776Z" fill="white"/>
<path d="M827 106.889C827 109.857 825.962 112.117 823.887 113.67C821.829 115.223 818.741 116 814.625 116C812.515 116 810.716 115.853 809.229 115.56C807.741 115.284 806.349 114.87 805.052 114.318V107.795C806.522 108.485 808.174 109.063 810.007 109.529C811.858 109.995 813.483 110.228 814.884 110.228C817.756 110.228 819.191 109.399 819.191 107.743C819.191 107.122 819.001 106.621 818.62 106.242C818.24 105.845 817.583 105.405 816.649 104.921C815.715 104.421 814.469 103.843 812.913 103.187C810.682 102.255 809.039 101.393 807.983 100.599C806.946 99.805 806.185 98.8991 805.7 97.8809C805.233 96.8456 805 95.5772 805 94.0759C805 91.5047 805.994 89.5203 807.983 88.1225C809.99 86.7075 812.826 86 816.493 86C819.987 86 823.385 86.7593 826.689 88.2778L824.302 93.9724C822.849 93.3512 821.491 92.8421 820.229 92.4452C818.966 92.0483 817.678 91.8499 816.363 91.8499C814.028 91.8499 812.861 92.4797 812.861 93.7394C812.861 94.4469 813.233 95.0595 813.976 95.5772C814.737 96.0949 816.389 96.8628 818.932 97.8809C821.197 98.7955 822.858 99.6497 823.913 100.443C824.968 101.237 825.746 102.152 826.248 103.187C826.749 104.223 827 105.456 827 106.889Z" fill="white"/>
<path d="M801 104.946C801 108.371 799.8 111.07 797.399 113.042C795.015 115.014 791.69 116 787.426 116C783.497 116 780.022 115.239 777 113.717V106.244C779.485 107.385 781.583 108.19 783.296 108.657C785.025 109.124 786.603 109.357 788.03 109.357C789.743 109.357 791.052 109.02 791.959 108.345C792.882 107.671 793.344 106.667 793.344 105.335C793.344 104.591 793.143 103.934 792.74 103.363C792.337 102.775 791.741 102.213 790.952 101.677C790.179 101.14 788.593 100.284 786.192 99.1078C783.942 98.018 782.255 96.9714 781.13 95.9681C780.005 94.9647 779.107 93.7971 778.435 92.4651C777.764 91.1331 777.428 89.5762 777.428 87.7944C777.428 84.4385 778.528 81.8004 780.727 79.8802C782.943 77.9601 785.999 77 789.894 77C791.808 77 793.63 77.2335 795.359 77.7006C797.105 78.1677 798.927 78.825 800.824 79.6727L798.305 85.9261C796.341 85.0958 794.712 84.5163 793.42 84.1876C792.144 83.8589 790.885 83.6946 789.642 83.6946C788.165 83.6946 787.031 84.0492 786.242 84.7585C785.453 85.4677 785.059 86.3932 785.059 87.5349C785.059 88.2442 785.218 88.8669 785.537 89.4032C785.856 89.9222 786.36 90.4325 787.048 90.9341C787.753 91.4185 789.407 92.3007 792.009 93.5808C795.451 95.2761 797.81 96.98 799.086 98.6926C800.362 100.388 801 102.472 801 104.946Z" fill="white"/>
<path d="M842 40H834.316V23.2134C834.316 19.066 832.804 16.9923 829.781 16.9923C827.631 16.9923 826.078 17.7378 825.12 19.2288C824.163 20.7198 823.684 23.1362 823.684 26.4781V40H816V0H823.684V8.1491C823.684 8.78321 823.625 10.2742 823.508 12.6221L823.331 14.9357H823.734C825.448 12.1251 828.169 10.7198 831.897 10.7198C835.206 10.7198 837.717 11.6281 839.43 13.4447C841.143 15.2614 842 17.8663 842 21.2596V40Z" fill="white"/>
<path d="M808 40H800.262V23.5992H785.763V40H778V2H785.763V16.8933H800.262V2H808V40Z" fill="white"/>
<path d="M925.299 109.642C926.605 109.642 928.172 109.337 930 108.727V114.666C928.139 115.555 925.854 116 923.144 116C920.157 116 917.978 115.198 916.607 113.593C915.252 111.971 914.575 109.547 914.575 106.32V92.218H911V88.843L915.113 86.1744L917.268 80H922.043V86.2267H929.706V92.218H922.043V106.32C922.043 107.453 922.336 108.291 922.924 108.831C923.528 109.372 924.32 109.642 925.299 109.642Z" fill="white"/>
<path d="M898.931 116H891.069V84.7059H881V78H909V84.7059H898.931V116Z" fill="white"/>
<path d="M898 4.83033C898 2.27678 899.333 1 902 1C904.667 1 906 2.27678 906 4.83033C906 6.04713 905.663 6.99829 904.988 7.6838C904.329 8.35219 903.333 8.68638 902 8.68638C899.333 8.68638 898 7.40103 898 4.83033ZM905.663 41H898.313V12.2596H905.663V41Z" fill="white"/>
<path d="M882 41V3H890V41H882Z" fill="white"/>
<path d="M1047.88 115.473L1046.81 111.703H1046.39C1045.53 113.074 1044.32 114.137 1042.75 114.893C1041.18 115.631 1039.39 116 1037.39 116C1033.95 116 1031.36 115.077 1029.62 113.232C1027.87 111.369 1027 108.698 1027 105.218V86H1034.98V103.214C1034.98 105.341 1035.35 106.94 1036.1 108.012C1036.85 109.067 1038.05 109.594 1039.69 109.594C1041.92 109.594 1043.53 108.847 1044.53 107.353C1045.52 105.842 1046.02 103.346 1046.02 99.8664V86H1054V115.473H1047.88Z" fill="white"/>
<path d="M1021 77V101.895C1021 104.737 1020.35 107.228 1019.05 109.368C1017.77 111.509 1015.92 113.149 1013.48 114.289C1011.04 115.43 1008.16 116 1004.84 116C999.827 116 995.933 114.737 993.16 112.211C990.387 109.667 989 106.193 989 101.789V77H997.24V100.553C997.24 103.518 997.844 105.693 999.053 107.079C1000.26 108.465 1002.26 109.158 1005.05 109.158C1007.76 109.158 1009.71 108.465 1010.92 107.079C1012.15 105.675 1012.76 103.482 1012.76 100.5V77H1021Z" fill="white"/>
<path d="M1011.6 53C1009.43 53 1007.56 52.7843 1006 52.353V46.1421C1007.3 46.4699 1008.63 46.6338 1009.99 46.6338C1011.42 46.6338 1012.46 46.2629 1013.11 45.521C1013.78 44.7791 1014.11 43.6836 1014.11 42.2344V11.335H1022.61V43.3989C1022.61 46.4699 1021.65 48.8335 1019.74 50.4897C1017.83 52.1632 1015.11 53 1011.6 53ZM1013.75 3.85596C1013.75 1.28532 1015.29 0 1018.37 0C1021.46 0 1023 1.28532 1023 3.85596C1023 5.08089 1022.61 6.03841 1021.83 6.72852C1021.07 7.40137 1019.92 7.73779 1018.37 7.73779C1015.29 7.73779 1013.75 6.44385 1013.75 3.85596Z" fill="white"/>
<path d="M995.249 52C993.624 52 992.207 51.8062 991 51.4186V44.6004C992.238 44.9528 993.368 45.129 994.39 45.129C995.969 45.129 997.099 44.5652 997.78 43.4376C998.461 42.3277 998.802 40.5835 998.802 38.2051V2H1006V38.1522C1006 42.6624 1005.09 46.098 1003.28 48.4588C1001.47 50.8196 998.794 52 995.249 52Z" fill="white"/>
<path d="M1127.97 118L1117 90H1125.21L1130.78 105.953C1131.39 107.974 1131.78 109.886 1131.94 111.689H1132.09C1132.18 110.086 1132.56 108.174 1133.25 105.953L1138.79 90H1147L1136.03 118H1127.97Z" fill="white"/>
<path d="M1109.77 80H1118L1104.93 118H1096.04L1083 80H1091.23L1098.46 102.613C1098.87 103.947 1099.28 105.507 1099.7 107.291C1100.14 109.059 1100.41 110.289 1100.51 110.982C1100.71 109.388 1101.36 106.598 1102.49 102.613L1109.77 80Z" fill="white"/>
<path d="M1125.39 27.3702L1128.75 23L1136.64 14.2596H1145.32L1134.12 26.7275L1146 43H1137.12L1129 31.3548L1125.69 34.054V43H1118V3H1125.69V20.8406L1125.29 27.3702H1125.39Z" fill="white"/>
<path d="M1115 43H1105.72L1095.62 26.9891L1092.17 29.4323V43H1084V5H1092.17V22.3885L1095.39 17.9179L1105.83 5H1114.89L1101.45 21.8167L1115 43Z" fill="white"/>
</svg>
